<svg width="96" height="32" viewBox="0 0 96 32" fill="none" xmlns="http://www.w3.org/2000/svg">
<g clip-path="url(#clip0_316_39)">
<path d="M22.4113 16.9102C22.397 14.2883 23.5792 12.3094 25.972 10.852C24.6332 8.93018 22.6106 7.87283 19.9401 7.66566C17.412 7.46566 14.6488 9.14451 13.6376 9.14451C12.5694 9.14451 10.1196 7.73715 8.1968 7.73715C4.22303 7.80141 0 10.9163 0 17.2531C0 19.1249 0.34183 21.0586 1.02549 23.0542C1.93704 25.6761 5.22716 32.1059 8.65971 31.9987C10.4543 31.9558 11.7219 30.7199 14.0578 30.7199C16.3224 30.7199 17.4974 31.9987 19.4986 31.9987C22.9596 31.9487 25.9364 26.1048 26.8052 23.4757C22.162 21.2824 22.4113 17.046 22.4113 16.9102ZM18.3805 5.17951C20.3247 2.86481 20.1466 0.75728 20.0897 0C18.3734 0.100018 16.3865 1.17164 15.2542 2.49331C14.0079 3.90785 13.2744 5.65817 13.4311 7.62995C15.2898 7.77286 16.9847 6.81555 18.3805 5.17951Z" fill="black"/>
<path d="M37.7187 21.0211L35.8529 26.6999H33.4545L39.5612 8.65251H42.3599L48.4899 26.6999H46.0099L44.0897 21.0211H37.7187ZM43.6116 19.1984L41.8546 14.0035C41.4542 12.8248 41.1899 11.7554 40.9217 10.7094H40.8712C40.6029 11.7788 40.3114 12.8755 39.9654 13.9762L38.2084 19.1945L43.6116 19.1984ZM50.3091 17.9689C50.3091 16.3102 50.2586 14.9675 50.2002 13.7381H52.307L52.4159 15.9628H52.4664C53.4266 14.3821 54.9464 13.4454 57.0532 13.4454C60.1746 13.4454 62.5185 16.0955 62.5185 20.0336C62.5185 24.6938 59.6925 26.9926 56.6529 26.9926C54.9464 26.9926 53.4538 26.2433 52.6802 24.9592H52.6297V32.0002H50.3091V17.9689ZM52.6258 21.4231C52.6258 21.7744 52.6763 22.0905 52.7346 22.3871C53.1622 24.0186 54.5732 25.1465 56.2564 25.1465C58.7363 25.1465 60.1784 23.1131 60.1784 20.139C60.1784 17.5396 58.818 15.3227 56.338 15.3227C54.7404 15.3227 53.2477 16.4741 52.7891 18.2421C52.7074 18.5349 52.6297 18.8861 52.6297 19.2062L52.6258 21.4231ZM64.944 17.9689C64.944 16.3102 64.8934 14.9675 64.8352 13.7381H66.9421L67.0509 15.9628H67.1014C68.0614 14.3821 69.5814 13.4454 71.6883 13.4454C74.8096 13.4454 77.1533 16.0955 77.1533 20.0336C77.1533 24.6938 74.3277 26.9926 71.2877 26.9926C69.5814 26.9926 68.089 26.2433 67.3152 24.9592H67.2646V32.0002H64.944V17.9689ZM67.2646 21.4231C67.2646 21.7744 67.3152 22.0905 67.3734 22.3871C67.801 24.0186 69.2122 25.1465 70.8954 25.1465C73.3754 25.1465 74.8173 23.1131 74.8173 20.139C74.8173 17.5396 73.4566 15.3227 70.9766 15.3227C69.3792 15.3227 67.8867 16.4741 67.4278 18.2421C67.3466 18.5349 67.2685 18.8861 67.2685 19.2062L67.2646 21.4231ZM79.5827 7.68848H81.9309V26.696H79.5827V7.68848ZM86.6496 20.6464C86.7002 23.8312 88.7296 25.1465 91.0733 25.1465C92.7526 25.1465 93.767 24.8538 94.6458 24.4791L95.0458 26.1652C94.2221 26.5399 92.807 26.9692 90.7546 26.9692C86.7821 26.9692 84.407 24.3464 84.407 20.4356C84.407 16.5248 86.7002 13.4454 90.4589 13.4454C94.6726 13.4454 95.792 17.1649 95.792 19.5497C95.792 20.0336 95.7414 20.4044 95.7107 20.6464H86.6496ZM93.5296 18.9603C93.5571 17.4615 92.9158 15.1315 90.2765 15.1315C87.9014 15.1315 86.8634 17.3289 86.6771 18.9603H93.5296Z" fill="black"/>
</g>
<defs>
<clipPath id="clip0_316_39">
<rect width="96" height="32" fill="white"/>
</clipPath>
</defs>
</svg>
